<mxfile host="app.diagrams.net" modified="2023-02-16T02:49:44.821Z" agent="5.0 (Windows NT 10.0; Win64; x64) AppleWebKit/537.36 (KHTML, like Gecko) Chrome/109.0.0.0 Safari/537.36" etag="Sk9-vLDlOtalfUE-6W1o" version="20.8.17" type="github">
  <diagram id="rR2q98W-JZrjsYltDYpd" name="第 1 页">
    <mxGraphModel dx="2048" dy="644" grid="1" gridSize="10" guides="1" tooltips="1" connect="1" arrows="1" fold="1" page="1" pageScale="1" pageWidth="827" pageHeight="1169" math="0" shadow="0">
      <root>
        <mxCell id="0" />
        <mxCell id="1" parent="0" />
        <mxCell id="fzowytdCQ6GuzeDUwVWQ-68" value="" style="rounded=0;whiteSpace=wrap;html=1;shadow=0;glass=0;sketch=0;strokeColor=#000000;strokeWidth=1;fontFamily=Helvetica;fontSize=15;opacity=20;dashed=1;dashPattern=8 8;" vertex="1" parent="1">
          <mxGeometry x="-790" y="480" width="740" height="160" as="geometry" />
        </mxCell>
        <mxCell id="fzowytdCQ6GuzeDUwVWQ-50" value="" style="rounded=0;whiteSpace=wrap;html=1;shadow=0;glass=0;sketch=0;strokeColor=default;strokeWidth=2;fontFamily=Helvetica;fontSize=12;opacity=20;shape=ellipse;perimeter=ellipsePerimeter;" vertex="1" parent="1">
          <mxGeometry x="-785" y="500" width="470" height="135" as="geometry" />
        </mxCell>
        <mxCell id="fzowytdCQ6GuzeDUwVWQ-51" value="&lt;h4&gt;&lt;span style=&quot;font-size: 14px;&quot;&gt;智脑&lt;/span&gt;&lt;/h4&gt;" style="text;html=1;strokeColor=none;fillColor=none;align=center;verticalAlign=middle;whiteSpace=wrap;rounded=0;fontSize=25;fontFamily=Helvetica;" vertex="1" parent="1">
          <mxGeometry x="-659" y="498" width="146" height="30" as="geometry" />
        </mxCell>
        <mxCell id="fzowytdCQ6GuzeDUwVWQ-59" value="" style="rounded=0;whiteSpace=wrap;html=1;shadow=0;glass=0;sketch=0;strokeColor=default;strokeWidth=2;fontFamily=Helvetica;fontSize=12;opacity=20;shape=ellipse;perimeter=ellipsePerimeter;" vertex="1" parent="1">
          <mxGeometry x="-486" y="495" width="426" height="140" as="geometry" />
        </mxCell>
        <mxCell id="fzowytdCQ6GuzeDUwVWQ-42" value="" style="rounded=0;whiteSpace=wrap;html=1;shadow=0;glass=0;sketch=0;strokeColor=#000000;strokeWidth=2;fontFamily=Helvetica;fontSize=15;opacity=20;" vertex="1" parent="1">
          <mxGeometry x="-796" y="667" width="746" height="101" as="geometry" />
        </mxCell>
        <mxCell id="fzowytdCQ6GuzeDUwVWQ-39" value="" style="rounded=0;whiteSpace=wrap;html=1;shadow=0;glass=0;sketch=0;strokeColor=#000000;strokeWidth=1;fontFamily=Helvetica;fontSize=15;opacity=20;dashed=1;dashPattern=8 8;" vertex="1" parent="1">
          <mxGeometry x="-790" y="60" width="410" height="220" as="geometry" />
        </mxCell>
        <mxCell id="fzowytdCQ6GuzeDUwVWQ-37" value="" style="rounded=0;whiteSpace=wrap;html=1;shadow=0;glass=0;sketch=0;strokeColor=#000000;strokeWidth=1;fontFamily=Helvetica;fontSize=15;opacity=20;dashed=1;dashPattern=8 8;" vertex="1" parent="1">
          <mxGeometry x="-360" y="60" width="310" height="220" as="geometry" />
        </mxCell>
        <mxCell id="fzowytdCQ6GuzeDUwVWQ-71" style="edgeStyle=orthogonalEdgeStyle;rounded=0;orthogonalLoop=1;jettySize=auto;html=1;exitX=1;exitY=0.5;exitDx=0;exitDy=0;entryX=1;entryY=0.5;entryDx=0;entryDy=0;fontFamily=Helvetica;fontSize=14;" edge="1" parent="1" source="fzowytdCQ6GuzeDUwVWQ-32" target="fzowytdCQ6GuzeDUwVWQ-42">
          <mxGeometry relative="1" as="geometry" />
        </mxCell>
        <mxCell id="fzowytdCQ6GuzeDUwVWQ-32" value="" style="rounded=0;whiteSpace=wrap;html=1;shadow=0;glass=0;sketch=0;strokeColor=#000000;strokeWidth=2;fontFamily=Helvetica;fontSize=15;opacity=20;" vertex="1" parent="1">
          <mxGeometry x="-796" y="330" width="746" height="90" as="geometry" />
        </mxCell>
        <mxCell id="fzowytdCQ6GuzeDUwVWQ-23" value="" style="ellipse;whiteSpace=wrap;html=1;rounded=0;shadow=0;glass=0;sketch=0;strokeColor=#000000;strokeWidth=2;fontFamily=Helvetica;fontSize=10;opacity=20;movable=1;resizable=1;rotatable=1;deletable=1;editable=1;locked=0;connectable=1;" vertex="1" parent="1">
          <mxGeometry x="-369" y="65" width="290" height="180" as="geometry" />
        </mxCell>
        <mxCell id="fzowytdCQ6GuzeDUwVWQ-20" value="" style="ellipse;whiteSpace=wrap;html=1;rounded=0;shadow=0;glass=0;sketch=0;strokeColor=#000000;strokeWidth=2;fontFamily=Helvetica;fontSize=10;opacity=20;" vertex="1" parent="1">
          <mxGeometry x="-669" y="65" width="425" height="180" as="geometry" />
        </mxCell>
        <mxCell id="fzowytdCQ6GuzeDUwVWQ-70" style="edgeStyle=orthogonalEdgeStyle;rounded=0;orthogonalLoop=1;jettySize=auto;html=1;exitX=0;exitY=0.5;exitDx=0;exitDy=0;entryX=0;entryY=0.5;entryDx=0;entryDy=0;fontFamily=Helvetica;fontSize=14;" edge="1" parent="1" source="fzowytdCQ6GuzeDUwVWQ-18" target="fzowytdCQ6GuzeDUwVWQ-68">
          <mxGeometry relative="1" as="geometry" />
        </mxCell>
        <mxCell id="fzowytdCQ6GuzeDUwVWQ-18" value="" style="ellipse;whiteSpace=wrap;html=1;rounded=0;shadow=0;glass=0;sketch=0;strokeColor=#000000;strokeWidth=2;fontFamily=Helvetica;fontSize=10;opacity=20;" vertex="1" parent="1">
          <mxGeometry x="-789" y="65" width="330" height="180" as="geometry" />
        </mxCell>
        <mxCell id="fzowytdCQ6GuzeDUwVWQ-1" value="&lt;br&gt;172.30.31.11&amp;nbsp;&amp;nbsp;AIX小型机&amp;nbsp; Oracle 11G" style="strokeWidth=2;html=1;shape=mxgraph.flowchart.database;whiteSpace=wrap;" vertex="1" parent="1">
          <mxGeometry x="-711" y="343" width="231" height="67" as="geometry" />
        </mxCell>
        <mxCell id="fzowytdCQ6GuzeDUwVWQ-2" value="&lt;br&gt;10.233.18.27&amp;nbsp;&amp;nbsp;Tstack私有云 Oracle 19C" style="strokeWidth=2;html=1;shape=mxgraph.flowchart.database;whiteSpace=wrap;" vertex="1" parent="1">
          <mxGeometry x="-301" y="340" width="221" height="70" as="geometry" />
        </mxCell>
        <mxCell id="fzowytdCQ6GuzeDUwVWQ-4" value="BIEE股份/子公司" style="ellipse;whiteSpace=wrap;html=1;shadow=0;shape=label;perimeter=rectanglePerimeter;rounded=0;" vertex="1" parent="1">
          <mxGeometry x="-749" y="121" width="60" height="51" as="geometry" />
        </mxCell>
        <mxCell id="fzowytdCQ6GuzeDUwVWQ-5" value="COE" style="ellipse;whiteSpace=wrap;html=1;shape=label;perimeter=rectanglePerimeter;rounded=0;" vertex="1" parent="1">
          <mxGeometry x="-594" y="93" width="60" height="31" as="geometry" />
        </mxCell>
        <mxCell id="fzowytdCQ6GuzeDUwVWQ-6" value="数据质量" style="ellipse;whiteSpace=wrap;html=1;shape=label;perimeter=rectanglePerimeter;rounded=0;" vertex="1" parent="1">
          <mxGeometry x="-599" y="185" width="65" height="30" as="geometry" />
        </mxCell>
        <mxCell id="fzowytdCQ6GuzeDUwVWQ-7" value="冷链物流" style="ellipse;whiteSpace=wrap;html=1;shape=label;perimeter=rectanglePerimeter;rounded=0;" vertex="1" parent="1">
          <mxGeometry x="-649" y="138" width="65" height="34" as="geometry" />
        </mxCell>
        <mxCell id="fzowytdCQ6GuzeDUwVWQ-8" value="用户权限/日志相关" style="ellipse;whiteSpace=wrap;html=1;shape=label;perimeter=rectanglePerimeter;rounded=0;" vertex="1" parent="1">
          <mxGeometry x="-448" y="95" width="69" height="51.5" as="geometry" />
        </mxCell>
        <mxCell id="fzowytdCQ6GuzeDUwVWQ-12" value="合同物流" style="ellipse;whiteSpace=wrap;html=1;shape=label;perimeter=rectanglePerimeter;rounded=0;" vertex="1" parent="1">
          <mxGeometry x="-534" y="135.5" width="65" height="32" as="geometry" />
        </mxCell>
        <mxCell id="fzowytdCQ6GuzeDUwVWQ-21" value="&lt;h2&gt;&lt;font style=&quot;font-size: 15px;&quot;&gt;BIEE&lt;/font&gt;&lt;/h2&gt;" style="text;html=1;strokeColor=none;fillColor=none;align=center;verticalAlign=middle;whiteSpace=wrap;rounded=0;fontSize=10;fontFamily=Helvetica;" vertex="1" parent="1">
          <mxGeometry x="-689" y="65" width="60" height="30" as="geometry" />
        </mxCell>
        <mxCell id="fzowytdCQ6GuzeDUwVWQ-22" value="&lt;h2&gt;&lt;font style=&quot;font-size: 15px;&quot;&gt;JAVA&lt;/font&gt;&lt;/h2&gt;" style="text;html=1;strokeColor=none;fillColor=none;align=center;verticalAlign=middle;whiteSpace=wrap;rounded=0;fontSize=10;fontFamily=Helvetica;" vertex="1" parent="1">
          <mxGeometry x="-484" y="65" width="60" height="30" as="geometry" />
        </mxCell>
        <mxCell id="fzowytdCQ6GuzeDUwVWQ-24" value="财务管理会计" style="ellipse;whiteSpace=wrap;html=1;shape=label;perimeter=rectanglePerimeter;rounded=0;" vertex="1" parent="1">
          <mxGeometry x="-346.5" y="115" width="76.5" height="30" as="geometry" />
        </mxCell>
        <mxCell id="fzowytdCQ6GuzeDUwVWQ-25" value="新一代" style="ellipse;whiteSpace=wrap;html=1;shape=label;perimeter=rectanglePerimeter;rounded=0;" vertex="1" parent="1">
          <mxGeometry x="-346.5" y="165.5" width="76.5" height="27.5" as="geometry" />
        </mxCell>
        <mxCell id="fzowytdCQ6GuzeDUwVWQ-26" value="&lt;h2&gt;&lt;font style=&quot;font-size: 15px;&quot;&gt;tableau&lt;/font&gt;&lt;/h2&gt;" style="text;html=1;strokeColor=none;fillColor=none;align=center;verticalAlign=middle;whiteSpace=wrap;rounded=0;fontSize=10;fontFamily=Helvetica;" vertex="1" parent="1">
          <mxGeometry x="-244" y="65" width="60" height="30" as="geometry" />
        </mxCell>
        <mxCell id="fzowytdCQ6GuzeDUwVWQ-34" value="" style="shape=flexArrow;endArrow=classic;html=1;rounded=0;fontFamily=Helvetica;fontSize=15;" edge="1" parent="1">
          <mxGeometry width="50" height="50" relative="1" as="geometry">
            <mxPoint x="-206.5" y="329" as="sourcePoint" />
            <mxPoint x="-206" y="259" as="targetPoint" />
          </mxGeometry>
        </mxCell>
        <mxCell id="fzowytdCQ6GuzeDUwVWQ-38" value="" style="shape=flexArrow;endArrow=classic;html=1;rounded=0;fontFamily=Helvetica;fontSize=15;" edge="1" parent="1">
          <mxGeometry width="50" height="50" relative="1" as="geometry">
            <mxPoint x="-594" y="329" as="sourcePoint" />
            <mxPoint x="-593.5" y="259" as="targetPoint" />
          </mxGeometry>
        </mxCell>
        <mxCell id="fzowytdCQ6GuzeDUwVWQ-40" value="自助分析（新一代）" style="ellipse;whiteSpace=wrap;html=1;shape=label;perimeter=rectanglePerimeter;rounded=0;" vertex="1" parent="1">
          <mxGeometry x="-217" y="134" width="80" height="43.75" as="geometry" />
        </mxCell>
        <mxCell id="fzowytdCQ6GuzeDUwVWQ-41" value="Node-1&amp;nbsp; 招商云 Oracle19C" style="strokeWidth=2;html=1;shape=mxgraph.flowchart.database;whiteSpace=wrap;" vertex="1" parent="1">
          <mxGeometry x="-774" y="701" width="190" height="60" as="geometry" />
        </mxCell>
        <mxCell id="fzowytdCQ6GuzeDUwVWQ-43" value="Node-2&amp;nbsp; 招商云 Oracle19C" style="strokeWidth=2;html=1;shape=mxgraph.flowchart.database;whiteSpace=wrap;" vertex="1" parent="1">
          <mxGeometry x="-559" y="701" width="190" height="60" as="geometry" />
        </mxCell>
        <mxCell id="fzowytdCQ6GuzeDUwVWQ-44" value="Node-3&amp;nbsp; 招商云 Oracle19C" style="strokeWidth=2;html=1;shape=mxgraph.flowchart.database;whiteSpace=wrap;" vertex="1" parent="1">
          <mxGeometry x="-346.5" y="701" width="190" height="60" as="geometry" />
        </mxCell>
        <mxCell id="fzowytdCQ6GuzeDUwVWQ-45" value="&lt;font style=&quot;font-size: 25px;&quot;&gt;......&lt;/font&gt;" style="text;html=1;strokeColor=none;fillColor=none;align=center;verticalAlign=middle;whiteSpace=wrap;rounded=0;fontSize=15;fontFamily=Helvetica;strokeWidth=1;" vertex="1" parent="1">
          <mxGeometry x="-134" y="710" width="60" height="30" as="geometry" />
        </mxCell>
        <mxCell id="fzowytdCQ6GuzeDUwVWQ-46" value="&lt;h4&gt;&lt;font style=&quot;font-size: 14px;&quot;&gt;Oracle 集群&lt;/font&gt;&lt;/h4&gt;" style="text;html=1;strokeColor=none;fillColor=none;align=center;verticalAlign=middle;whiteSpace=wrap;rounded=0;fontSize=25;fontFamily=Helvetica;" vertex="1" parent="1">
          <mxGeometry x="-502" y="661" width="146" height="30" as="geometry" />
        </mxCell>
        <mxCell id="fzowytdCQ6GuzeDUwVWQ-47" value="移动端" style="ellipse;whiteSpace=wrap;html=1;shape=label;perimeter=rectanglePerimeter;rounded=0;" vertex="1" parent="1">
          <mxGeometry x="-449" y="155" width="69" height="30" as="geometry" />
        </mxCell>
        <mxCell id="fzowytdCQ6GuzeDUwVWQ-48" value="Hr运才报（旧）" style="ellipse;whiteSpace=wrap;html=1;shape=label;perimeter=rectanglePerimeter;rounded=0;" vertex="1" parent="1">
          <mxGeometry x="-448" y="200" width="69" height="32" as="geometry" />
        </mxCell>
        <mxCell id="fzowytdCQ6GuzeDUwVWQ-52" value="新一代" style="ellipse;whiteSpace=wrap;html=1;shape=label;perimeter=rectanglePerimeter;rounded=0;" vertex="1" parent="1">
          <mxGeometry x="-575" y="537" width="80" height="30" as="geometry" />
        </mxCell>
        <mxCell id="fzowytdCQ6GuzeDUwVWQ-53" value="财务管理会计" style="ellipse;whiteSpace=wrap;html=1;shape=label;perimeter=rectanglePerimeter;rounded=0;" vertex="1" parent="1">
          <mxGeometry x="-575" y="579" width="80" height="30" as="geometry" />
        </mxCell>
        <mxCell id="fzowytdCQ6GuzeDUwVWQ-56" value="Hr运才报（新）" style="ellipse;whiteSpace=wrap;html=1;shape=label;perimeter=rectanglePerimeter;rounded=0;" vertex="1" parent="1">
          <mxGeometry x="-739" y="534.75" width="120" height="30" as="geometry" />
        </mxCell>
        <mxCell id="fzowytdCQ6GuzeDUwVWQ-57" value="" style="shape=flexArrow;endArrow=classic;html=1;rounded=0;fontFamily=Helvetica;fontSize=15;" edge="1" parent="1">
          <mxGeometry width="50" height="50" relative="1" as="geometry">
            <mxPoint x="-404.41999999999996" y="667.0000000000001" as="sourcePoint" />
            <mxPoint x="-404" y="625" as="targetPoint" />
          </mxGeometry>
        </mxCell>
        <mxCell id="fzowytdCQ6GuzeDUwVWQ-60" value="&lt;h4&gt;&lt;span style=&quot;font-size: 14px;&quot;&gt;Java&lt;/span&gt;&lt;/h4&gt;" style="text;html=1;strokeColor=none;fillColor=none;align=center;verticalAlign=middle;whiteSpace=wrap;rounded=0;fontSize=25;fontFamily=Helvetica;" vertex="1" parent="1">
          <mxGeometry x="-341" y="498" width="146" height="30" as="geometry" />
        </mxCell>
        <mxCell id="fzowytdCQ6GuzeDUwVWQ-61" value="用户权限/日志相关" style="ellipse;whiteSpace=wrap;html=1;shape=label;perimeter=rectanglePerimeter;rounded=0;" vertex="1" parent="1">
          <mxGeometry x="-301" y="550" width="121" height="40" as="geometry" />
        </mxCell>
        <mxCell id="fzowytdCQ6GuzeDUwVWQ-62" value="移动端" style="ellipse;whiteSpace=wrap;html=1;shape=label;perimeter=rectanglePerimeter;rounded=0;" vertex="1" parent="1">
          <mxGeometry x="-170" y="549.75" width="70" height="40" as="geometry" />
        </mxCell>
        <mxCell id="fzowytdCQ6GuzeDUwVWQ-64" value="BIEE相关..." style="ellipse;whiteSpace=wrap;html=1;shape=label;perimeter=rectanglePerimeter;rounded=0;" vertex="1" parent="1">
          <mxGeometry x="-739" y="576" width="120" height="30" as="geometry" />
        </mxCell>
        <mxCell id="fzowytdCQ6GuzeDUwVWQ-66" value="其他..." style="ellipse;whiteSpace=wrap;html=1;shape=label;perimeter=rectanglePerimeter;rounded=0;" vertex="1" parent="1">
          <mxGeometry x="-435.5" y="546" width="89" height="32" as="geometry" />
        </mxCell>
      </root>
    </mxGraphModel>
  </diagram>
</mxfile>
